<svg width="24" height="24" viewBox="0 0 24 24" fill="current" xmlns="http://www.w3.org/2000/svg">
<g id="24 / various / atom">
<path id="icon" fill-rule="evenodd" clip-rule="evenodd" d="M19.6278 12C21.7205 15.4223 22.2461 18.7244 20.4853 20.4853C18.7244 22.2461 15.4222 21.7205 12 19.6278C8.57772 21.7205 5.27554 22.2461 3.51471 20.4853C1.75387 18.7244 2.27946 15.4223 4.37219 12C2.27946 8.57774 1.75387 5.27556 3.51471 3.51472C5.27554 1.75389 8.57772 2.27948 12 4.3722C15.4223 2.27948 18.7244 1.75389 20.4853 3.51472C22.2461 5.27556 21.7205 8.57774 19.6278 12ZM9.17156 9.17158C10.0979 8.24519 11.0567 7.44244 12 6.77446C12.9432 7.44244 13.902 8.24519 14.8284 9.17158C15.7548 10.098 16.5575 11.0568 17.2255 12C16.5575 12.9432 15.7548 13.902 14.8284 14.8284C13.902 15.7548 12.9432 16.5576 12 17.2255C11.0567 16.5576 10.0979 15.7548 9.17156 14.8284C8.24518 13.902 7.44243 12.9432 6.77445 12C7.44243 11.0568 8.24518 10.098 9.17156 9.17158ZM4.92892 4.92893C5.7904 4.06745 7.8205 4.36803 10.1706 5.63344C9.35211 6.26226 8.54119 6.97352 7.75735 7.75736C6.97351 8.5412 6.26224 9.35213 5.63342 10.1707C4.36801 7.82051 4.06744 5.79041 4.92892 4.92893ZM16.2426 7.75736C17.0265 8.5412 17.7377 9.35213 18.3666 10.1707C19.632 7.82051 19.9325 5.79041 19.0711 4.92893C18.2096 4.06745 16.1795 4.36803 13.8293 5.63344C14.6479 6.26226 15.4588 6.97352 16.2426 7.75736ZM16.2426 16.2426C17.0265 15.4588 17.7377 14.6479 18.3666 13.8294C19.632 16.1795 19.9325 18.2096 19.0711 19.0711C18.2096 19.9326 16.1795 19.632 13.8293 18.3666C14.6479 17.7377 15.4588 17.0265 16.2426 16.2426ZM5.63342 13.8294C6.26224 14.6479 6.97351 15.4588 7.75735 16.2426C8.54119 17.0265 9.35211 17.7377 10.1706 18.3666C7.8205 19.632 5.7904 19.9326 4.92892 19.0711C4.06744 18.2096 4.36801 16.1795 5.63342 13.8294ZM13 12C13 11.4477 12.5523 11 12 11C11.4477 11 11 11.4477 11 12C11 12.5523 11.4477 13 12 13C12.5523 13 13 12.5523 13 12Z" fill="#ECECEC"/>
</g>
</svg>
