<svg width="24" height="24" viewBox="0 0 24 24" fill="current" xmlns="http://www.w3.org/2000/svg">
<path fill-rule="evenodd" clip-rule="evenodd" d="M17.2626 2.17687C17.946 1.49345 19.054 1.49345 19.7375 2.17687L22.3232 4.76266C23.0067 5.44608 23.0067 6.55411 22.3232 7.23753L19.5303 10.0304L19.5179 10.0426L8.68981 20.3785C8.49198 20.5673 8.25264 20.7072 7.99101 20.7868L2.46839 22.4676C2.20341 22.5482 1.91555 22.4763 1.71969 22.2804C1.52383 22.0846 1.45187 21.7967 1.53251 21.5317L3.20612 16.0327C3.29376 15.7448 3.45421 15.4843 3.67196 15.2764L14.4759 4.96359L17.2626 2.17687ZM14.9878 6.54856L4.70768 16.3614C4.67657 16.3911 4.65365 16.4283 4.64113 16.4695L3.37697 20.6231L7.55426 19.3518C7.59164 19.3404 7.62583 19.3204 7.65409 19.2935L17.9269 9.48762L14.9878 6.54856ZM19 8.43943L21.2626 6.17687C21.3602 6.07924 21.3602 5.92095 21.2626 5.82332L18.6768 3.23753C18.5792 3.1399 18.4209 3.1399 18.3232 3.23753L16.0607 5.50009L19 8.43943Z" />
</svg>
