<svg width="20" height="20" viewBox="0 0 20 20" fill="current" xmlns="http://www.w3.org/2000/svg">
<g id="24 / basic / pencil-edit">
<path id="icon" fill-rule="evenodd" clip-rule="evenodd" d="M18.3334 16.6667V10.8333H16.6667V16.6667H3.33335V3.33333H9.16669V1.66667H3.33335C2.41288 1.66667 1.66669 2.41286 1.66669 3.33333V16.6667C1.66669 17.5871 2.41288 18.3333 3.33335 18.3333H16.6667C17.5872 18.3333 18.3334 17.5871 18.3334 16.6667ZM15.9818 2.26952C15.5998 1.88452 15.0768 1.66667 14.5311 1.66667C13.9861 1.66667 13.4637 1.88402 13.0795 2.27052L6.10543 9.24452C5.48224 9.79361 5.07372 10.6107 5.00273 11.4894L5.00002 14.1686V15.0019H8.44552C9.39077 14.9371 10.2159 14.5246 10.7979 13.8531L17.7325 6.92153C18.1173 6.5368 18.3334 6.01499 18.3334 5.4709C18.3334 4.92681 18.1173 4.405 17.7325 4.02027L15.9818 2.26952ZM8.38667 13.3374C8.83186 13.3058 9.24626 13.0986 9.57901 12.718L14.6306 7.66643L12.3354 5.37106L7.24677 10.458C6.90915 10.7566 6.70028 11.1744 6.66669 11.5565V13.3358L8.38667 13.3374ZM13.5141 4.19274L15.8091 6.48792L16.554 5.74302C16.6262 5.67085 16.6667 5.57296 16.6667 5.4709C16.6667 5.36883 16.6262 5.27095 16.554 5.19878L14.801 3.44571C14.7296 3.37379 14.6325 3.33333 14.5311 3.33333C14.4298 3.33333 14.3327 3.37379 14.2613 3.44571L13.5141 4.19274Z" fill="#ECECEC"/>
</g>
</svg>
