<svg width="24" height="24" viewBox="0 0 24 24" fill="current" xmlns="http://www.w3.org/2000/svg">
<path fill-rule="evenodd" clip-rule="evenodd" d="M3.50037 8C3.50037 4.96245 5.96275 2.5 9.00029 2.5C12.0378 2.5 14.5002 4.96245 14.5002 8C14.5002 9.88949 13.5474 11.5564 12.0961 12.5466C15.4606 13.7791 17.8841 16.963 17.9961 20.7277C18.0085 21.1417 17.6828 21.4873 17.2688 21.4997C16.8548 21.512 16.5091 21.1863 16.4968 20.7723C16.3767 16.7357 13.0662 13.5 9.0002 13.5C4.93422 13.5 1.62372 16.7357 1.50358 20.7723C1.49126 21.1863 1.14563 21.512 0.731601 21.4997C0.317571 21.4873 -0.0080778 21.1417 0.00424474 20.7277C0.116293 16.9629 2.53988 13.7791 5.90443 12.5466C4.45313 11.5564 3.50037 9.88946 3.50037 8ZM9.00029 4C6.7912 4 5.00037 5.79085 5.00037 8C5.00037 10.2092 6.7912 12 9.00029 12C11.2094 12 13.0002 10.2092 13.0002 8C13.0002 5.79085 11.2094 4 9.00029 4Z" fill="#ECECEC"/>
<path d="M17.2903 8C17.1426 8 16.9978 8.01051 16.8565 8.03072C16.4465 8.08936 16.0665 7.8045 16.0079 7.39446C15.9492 6.98442 16.2341 6.60447 16.6441 6.54583C16.8556 6.51559 17.0713 6.5 17.2903 6.5C19.7921 6.5 21.8202 8.52816 21.8202 11.03C21.8202 12.5058 21.1144 13.8159 20.0239 14.6424C22.3553 15.6875 23.9802 18.0282 23.9802 20.75C23.9802 21.1642 23.6444 21.5 23.2302 21.5C22.816 21.5 22.4802 21.1642 22.4802 20.75C22.4802 18.4041 20.9233 16.4199 18.7846 15.7782L18.2502 15.6178V13.9418L18.6605 13.7334C19.647 13.2321 20.3202 12.209 20.3202 11.03C20.3202 9.35657 18.9637 8 17.2903 8Z" fill="#ECECEC"/>
</svg>
