<svg width="48" height="48" viewBox="0 0 48 48" fill="current" xmlns="http://www.w3.org/2000/svg">
<path d="M24 4.8C13.3968 4.8 4.80005 13.3968 4.80005 24C4.80005 27.6019 5.8118 30.9601 7.53755 33.8406L4.97192 43.2L14.5313 40.6906C17.327 42.2801 20.5544 43.2 24 43.2C34.6032 43.2 43.2001 34.6032 43.2001 24C43.2001 13.3968 34.6032 4.8 24 4.8ZM17.4282 15.0438C17.7402 15.0438 18.0607 15.0419 18.3376 15.0563C18.68 15.0643 19.0526 15.0893 19.4094 15.8781C19.8334 16.8157 20.7566 19.1679 20.875 19.4063C20.9934 19.6447 21.0773 19.9255 20.9125 20.2375C20.7557 20.5575 20.6742 20.7512 20.4438 21.0344C20.2054 21.3096 19.9442 21.6514 19.7282 21.8594C19.4898 22.0978 19.2436 22.3592 19.5188 22.8344C19.794 23.3096 20.7497 24.8674 22.1625 26.125C23.9785 27.7474 25.5107 28.246 25.9875 28.4844C26.4643 28.7228 26.7405 28.6856 27.0157 28.3656C27.2989 28.0536 28.205 26.9831 28.525 26.5063C28.837 26.0295 29.1556 26.112 29.5875 26.2688C30.0259 26.4256 32.3639 27.5772 32.8407 27.8156C33.3175 28.054 33.63 28.172 33.75 28.3656C33.8732 28.5656 33.8734 29.5177 33.4782 30.6281C33.083 31.7369 31.1423 32.8092 30.2719 32.8844C29.3935 32.966 28.5737 33.2792 24.5625 31.7C19.7241 29.7944 16.6728 24.8388 16.4344 24.5188C16.196 24.2068 14.4969 21.9423 14.4969 19.6063C14.4969 17.2623 15.7259 16.1143 16.1563 15.6375C16.5947 15.1607 17.1082 15.0438 17.4282 15.0438Z" />
</svg>
